<svg width="700" height="188" viewBox="0 0 700 188" fill="none" xmlns="http://www.w3.org/2000/svg">
<path d="M93.5218 116.719V82.22C93.5218 77.4919 92.6881 73.0443 91.0207 68.8772C89.4257 64.63 87.2145 60.9437 84.3871 57.8184C81.5597 54.6931 78.2248 52.2489 74.3825 50.4859C70.6126 48.6428 66.589 47.7212 62.3116 47.7212C58.0343 47.7212 53.9744 48.6428 50.132 50.4859C46.3622 52.2489 43.0635 54.6931 40.2361 57.8184C37.4087 60.9437 35.1613 64.63 33.4939 68.8772C31.8989 73.0443 31.1014 77.4919 31.1014 82.22V116.719H93.5218ZM124.732 185.596H93.5218V151.097H31.1014V185.596H0V82.22C0 72.6837 1.63119 63.7485 4.89358 55.4143C8.15597 47 12.5783 39.6675 18.1606 33.4169C23.8154 27.1662 30.4127 22.2379 37.9525 18.6317C45.5647 15.0256 53.6844 13.2225 62.3116 13.2225C70.9388 13.2225 79.0223 15.0256 86.5621 18.6317C94.1743 22.2379 100.808 27.1662 106.463 33.4169C112.117 39.6675 116.576 47 119.838 55.4143C123.101 63.7485 124.732 72.6837 124.732 82.22V185.596Z" fill="black"/>
<path d="M249.355 82.4604L227.606 106.621C226.519 103.256 225.032 100.251 223.147 97.6061C221.262 94.8815 219.124 92.5976 216.731 90.7545C214.411 88.9113 211.874 87.509 209.119 86.5473C206.364 85.5857 203.537 85.1049 200.637 85.1049C196.577 85.1049 192.735 86.0264 189.11 87.8696C185.557 89.7127 182.44 92.3171 179.758 95.6829C177.148 98.9685 175.082 102.895 173.559 107.463C172.037 112.031 171.275 117.079 171.275 122.609C171.275 127.096 172.037 131.304 173.559 135.23C175.082 139.157 177.148 142.603 179.758 145.568C182.44 148.533 185.557 150.857 189.11 152.54C192.735 154.223 196.577 155.064 200.637 155.064C203.537 155.064 206.328 154.623 209.01 153.742C211.693 152.86 214.194 151.618 216.514 150.015C218.906 148.332 221.009 146.329 222.821 144.005C224.706 141.601 226.229 138.957 227.389 136.072L249.138 160.233C246.383 164.56 243.193 168.447 239.568 171.893C236.016 175.338 232.137 178.263 227.932 180.668C223.8 183.072 219.414 184.875 214.774 186.077C210.207 187.359 205.494 188 200.637 188C192.445 188 184.724 186.317 177.474 182.951C170.297 179.506 163.989 174.818 158.552 168.887C153.187 162.957 148.946 156.026 145.829 148.092C142.711 140.159 141.153 131.664 141.153 122.609C141.153 112.752 142.711 103.536 145.829 94.9616C148.946 86.387 153.187 78.9344 158.552 72.6036C163.989 66.1927 170.297 61.1441 177.474 57.4578C184.724 53.7715 192.445 51.9284 200.637 51.9284C205.494 51.9284 210.243 52.6096 214.883 53.9719C219.595 55.3342 224.054 57.3376 228.259 59.9821C232.536 62.5465 236.451 65.7119 240.003 69.4783C243.628 73.2447 246.745 77.572 249.355 82.4604Z" fill="black"/>
<path d="M293.615 185.596H263.927V5.64962H293.615V62.5064C297.167 59.5413 300.829 57.4578 304.598 56.2558C308.368 54.9736 312.211 54.3325 316.126 54.3325C323.303 54.3325 330.045 55.8551 336.352 58.9003C342.66 61.8653 348.133 65.9923 352.773 71.2813C357.485 76.4902 361.183 82.6206 363.865 89.6726C366.62 96.6445 367.998 104.097 367.998 112.031V185.596H338.092V112.031H338.31C338.31 108.665 337.73 105.5 336.57 102.535C335.41 99.4893 333.815 96.8448 331.785 94.601C329.755 92.3572 327.399 90.5942 324.716 89.312C322.034 88.0298 319.17 87.3887 316.126 87.3887C313.008 87.3887 310.072 88.0298 307.317 89.312C304.562 90.5942 302.17 92.3572 300.14 94.601C298.11 96.8448 296.515 99.4893 295.355 102.535C294.195 105.5 293.615 108.665 293.615 112.031V185.596Z" fill="black"/>
<path d="M501.973 185.596H494.796L483.269 167.926C480.441 170.731 477.433 173.375 474.243 175.859C471.125 178.263 467.827 180.387 464.347 182.23C460.867 183.993 457.278 185.396 453.581 186.437C449.956 187.479 446.259 188 442.489 188C434.297 188 426.576 186.477 419.326 183.432C412.149 180.387 405.841 175.98 400.404 170.21C395.039 164.36 390.798 157.228 387.681 148.813C384.563 140.399 383.004 130.823 383.004 120.084C383.004 110.067 384.563 100.892 387.681 92.5575C390.798 84.1432 395.039 76.9309 400.404 70.9207C405.841 64.9105 412.149 60.2626 419.326 56.977C426.576 53.6113 434.297 51.9284 442.489 51.9284C446.259 51.9284 449.992 52.4493 453.69 53.4911C457.387 54.5328 460.976 55.9753 464.455 57.8184C467.935 59.6616 471.234 61.8252 474.351 64.3095C477.541 66.7937 480.514 69.4783 483.269 72.3632L494.796 57.0972H501.973V185.596ZM472.068 120.084C472.068 115.597 471.27 111.269 469.675 107.102C468.153 102.855 466.05 99.1287 463.368 95.9233C460.686 92.6377 457.532 90.0333 453.907 88.11C450.355 86.1066 446.549 85.1049 442.489 85.1049C438.429 85.1049 434.586 85.8662 430.962 87.3887C427.409 88.9113 424.292 91.1552 421.609 94.1202C419 97.0853 416.933 100.772 415.411 105.179C413.888 109.506 413.127 114.475 413.127 120.084C413.127 125.694 413.888 130.702 415.411 135.11C416.933 139.437 419 143.084 421.609 146.049C424.292 149.014 427.409 151.257 430.962 152.78C434.586 154.303 438.429 155.064 442.489 155.064C446.549 155.064 450.355 154.102 453.907 152.179C457.532 150.176 460.686 147.571 463.368 144.366C466.05 141.08 468.153 137.354 469.675 133.187C471.27 128.939 472.068 124.572 472.068 120.084Z" fill="black"/>
<path d="M559.065 185.596H527.855V13.2225H559.065V99.4092L617.135 13.2225H652.587L603.325 85.9463L652.587 185.596H617.135L582.88 115.877L559.065 151.097V185.596Z" fill="black"/>
<path d="M700 21.8772C700 24.9224 699.456 27.7673 698.369 30.4118C697.354 33.0563 695.94 35.3802 694.128 37.3836C692.315 39.3069 690.177 40.8696 687.712 42.0716C685.319 43.1935 682.746 43.7545 679.991 43.7545C677.236 43.7545 674.626 43.1935 672.161 42.0716C669.769 40.8696 667.666 39.3069 665.854 37.3836C664.114 35.3802 662.7 33.0563 661.613 30.4118C660.598 27.7673 660.09 24.9224 660.09 21.8772C660.09 18.9122 660.598 16.1074 661.613 13.4629C662.7 10.7383 664.114 8.41432 665.854 6.49105C667.666 4.48764 669.769 2.92498 672.161 1.80307C674.626 0.601023 677.236 0 679.991 0C682.746 0 685.319 0.601023 687.712 1.80307C690.177 2.92498 692.315 4.48764 694.128 6.49105C695.94 8.41432 697.354 10.7383 698.369 13.4629C699.456 16.1074 700 18.9122 700 21.8772ZM694.889 185.596H664.984V56.8568H694.889V185.596Z" fill="black"/>
</svg>
